<svg id="Group_6" data-name="Group 6" xmlns="http://www.w3.org/2000/svg" xmlns:xlink="http://www.w3.org/1999/xlink" width="140.254" height="135.408" viewBox="0 0 140.254 135.408">
  <defs>
    <clipPath id="clip-path">
      <rect id="Rectangle_20" data-name="Rectangle 20" width="140.254" height="135.408" fill="none"/>
    </clipPath>
  </defs>
  <g id="Group_5" data-name="Group 5" transform="translate(0 0)" clip-path="url(#clip-path)">
    <path id="Path_28" data-name="Path 28" d="M65.71,38.512,62.9,26.693l1.793-3.16L89.3,18.464,65.982,9.118,51.788,0,35.31,12l-.434,4.846H0v118.56H95.618v-96.9H65.71Zm-27.231-3.1,1.193-13.324.47-5.245.179-2.008L51.973,6.354l11.385,7.312,7.807,3.18L61.687,18.8l-.379.078L57.32,25.9l4.246,17.858.125.525,6.172,6.9,6.786,12.154,2.209,13.556-12.295-18,.67,35.238-2.951,12.882,5.476,4.075,1.772,3.323-5.184-1.3-5.324-3.889-15.731.312L48.8,116.2l.359,2.554-3.827-1.339-6.222-7.5-6.287-1.9-4.405,3.7-5.11.092,7.2-6.192,2.948-5.672L31.678,86.993,33.929,50.82,22.567,77.309,18.229,83.39l1.343-15.471L29.305,45.1Zm51.893,94.747H5.244V22.093H34.406l-.988,11.04L24.851,42.18,14.419,66.631l-3.076,35.442L26.836,80.357l-.425,6.832L28.035,99.01,26.322,102.3,8.854,117.32l21.512-.39,3.656-3.07,2.058.62,6.142,7.4,13.326,4.665-1.683-11.983,3.494-.069,4.719,3.447,17.647,4.445-7.89-14.806-3.675-2.734,2.33-10.174L70.141,76.36,85.824,99.323,79.678,61.585,72.159,48.119l-3.9-4.362H90.373ZM136.245,12.87c-.091.01-9.25.981-12.517.956-3.779-.038-4.933-.655-5.21-.856.168-.728,1.7-2.4,3.233-3.513l5.528-3.976-6.806.227c-14.185.476-23.405,10.8-23.791,11.236l-1.158,1.32,1.113,1.358c6.763,8.246,22.806,10.746,23.486,10.849l7.733,1.163-6.151-4.84a6.911,6.911,0,0,1-1.758-2,8.223,8.223,0,0,1,3.316-.646c10.581-.607,14.827-7.895,15-8.2l1.988-3.509Zm-13.217,7.149c-1.516.087-6.128.352-7.11,3.5a3.751,3.751,0,0,0-.1,1.793c-4.414-1.152-10.779-3.327-14.691-6.955a33.5,33.5,0,0,1,13.918-7.713,4.607,4.607,0,0,0-.5,3.6c1.032,3.26,5.713,3.682,9.144,3.717,1.653.022,4.6-.195,7.258-.425a15.966,15.966,0,0,1-7.919,2.48" transform="translate(0 0)" fill="#ff6427"/>
  </g>
</svg>
