<svg xmlns="http://www.w3.org/2000/svg"  viewBox="0 0 50 50" width="50px" height="50px"><path d="M 24.59375 2.09375 C 14.09375 2.09375 5.59375 10.59375 5.59375 21.09375 C 5.59375 31.59375 14.09375 40.09375 24.59375 40.09375 C 35.09375 40.09375 43.59375 31.59375 43.59375 21.09375 C 43.59375 10.59375 35.09375 2.09375 24.59375 2.09375 Z M 21 8 C 25.800781 8 27 11.800781 27 14.5 C 27 15.699219 26.792969 16.914063 26.59375 17.8125 C 26.09375 17.613281 25.601563 17.40625 25 17.40625 C 24 17.40625 23.101563 17.800781 22.5 18.5 C 20.699219 15.101563 17 15.605469 17 11.90625 C 17 9.507813 18.898438 8 21 8 Z M 34.78125 18.25 C 35.421875 18.191406 36.105469 18.335938 36.90625 18.8125 C 39.007813 20.011719 39.3125 22.386719 38.3125 24.1875 C 35.914063 28.1875 31.894531 27.300781 29.59375 26 C 28.59375 25.398438 27.605469 24.699219 26.90625 24 C 27.804688 23.398438 28.5 22.292969 28.5 21.09375 C 28.5 20.792969 28.40625 20.488281 28.40625 20.1875 C 31.332031 20.335938 32.855469 18.421875 34.78125 18.25 Z M 25 19 C 26.101563 19 27 19.898438 27 21 C 27 22.101563 26.101563 23 25 23 C 23.898438 23 23 22.101563 23 21 C 23 19.898438 23.898438 19 25 19 Z M 21.5 21.1875 C 21.601563 22.6875 22.695313 24.007813 24.09375 24.40625 C 21.992188 27.605469 24.292969 30.601563 21.09375 32.5 C 18.992188 33.699219 16.6875 32.800781 15.6875 31 C 13.289063 26.898438 16.007813 23.898438 18.40625 22.5 C 19.40625 21.898438 20.5 21.488281 21.5 21.1875 Z M 20.40625 41.5 C 19.707031 42.601563 18.40625 43.007813 16.90625 43.40625 C 15.207031 43.90625 13 44.5 13 47 L 13 49 C 13 49.601563 13.398438 50 14 50 L 36 50 C 36.601563 50 37 49.601563 37 49 L 37 47 C 37 44.5 34.792969 43.90625 33.09375 43.40625 C 31.59375 43.007813 30.292969 42.601563 29.59375 41.5 C 28.09375 41.800781 26.601563 42 25 42 C 23.398438 42 21.90625 41.800781 20.40625 41.5 Z"/></svg>