<?xml version="1.0" encoding="UTF-8"?><svg id="Layer_1" xmlns="http://www.w3.org/2000/svg" xmlns:xlink="http://www.w3.org/1999/xlink" viewBox="0 0 2213.68 856.68"><defs><style>.cls-1{fill:url(#linear-gradient);}.cls-2{fill:#231f20;}</style><linearGradient id="linear-gradient" x1="443.67" y1="856.68" x2="443.67" y2="0" gradientUnits="userSpaceOnUse"><stop offset=".2" stop-color="#6ff"/><stop offset=".8" stop-color="#ff6427"/></linearGradient></defs><path class="cls-1" d="m415.73,243.65l-17.78-74.77,11.35-20,155.7-32.07-147.55-59.13L327.65,0l-104.25,75.93-2.75,30.66H0v750.09h604.95V243.65h-189.22Zm-172.28-19.59l7.55-84.29,2.97-33.18,1.14-12.7,73.72-53.69,72.02,46.26,49.39,20.11-59.96,12.35-2.4.49-25.23,44.44,26.86,112.98.79,3.32,39.05,43.66,42.93,76.89,13.97,85.77-77.79-113.9,4.25,222.94-18.67,81.5,34.64,25.78,11.21,21.03-32.79-8.26-33.68-24.6-99.53,1.96,34.84,42.21,2.27,16.16-24.22-8.48-39.36-47.44-39.78-12.01-27.87,23.42-32.32.58,45.57-39.18,18.65-35.88-11.25-81.96,14.24-228.86-71.88,167.59-27.45,38.47,8.49-97.88,61.58-144.34,58.04-61.29Zm328.31,599.43H33.18V139.77h184.5l-6.25,69.85-54.2,57.24-66,154.69-19.46,224.23,98.02-137.38-2.69,43.22,10.27,74.79-10.83,20.83-110.52,95.01,136.1-2.46,23.13-19.43,13.02,3.93,38.85,46.83,84.31,29.51-10.64-75.81,22.1-.44,29.86,21.81,111.65,28.12-49.92-93.67-23.25-17.3,14.75-64.37-2.21-115.86,99.23,145.28-38.89-238.77-47.57-85.19-24.68-27.6h139.91v546.66ZM861.98,81.42c-.57.06-58.53,6.2-79.19,6.05-23.91-.24-31.21-4.14-32.97-5.42,1.07-4.61,10.73-15.19,20.45-22.23l34.98-25.16-43.06,1.44c-89.74,3.01-148.07,68.31-150.51,71.09l-7.33,8.35,7.04,8.59c42.79,52.17,144.29,67.99,148.59,68.64l48.93,7.36-38.91-30.61c-4.79-3.76-9.73-9.47-11.12-12.64,2.04-1.12,7.62-3.32,20.98-4.08,66.94-3.84,93.8-49.94,94.91-51.9l12.57-22.2-25.36,2.73Zm-83.62,45.23c-9.58.55-38.77,2.23-44.98,22.15-1.2,3.86-1.3,7.67-.64,11.34-27.93-7.29-68.2-21.05-92.95-44,14.24-13.09,45.66-38.04,88.05-48.8-3.81,7.16-5.63,14.99-3.16,22.8,6.53,20.62,36.14,23.3,57.85,23.51,10.46.14,29.1-1.23,45.92-2.69-11.67,7.59-28.07,14.43-50.1,15.69Z"/><path class="cls-2" d="m777.05,534.17c-16.57,0-29.45-3.04-38.65-9.11-9.2-6.07-15.55-14.72-19.04-25.95-3.5-11.22-5.25-24.66-5.25-40.3v-151.27h39.75v155.96c0,7,.46,13.57,1.38,19.74.92,6.17,3.08,11.14,6.49,14.91,3.4,3.77,8.51,5.66,15.32,5.66,7.18,0,12.37-1.88,15.6-5.66,3.22-3.77,5.33-8.74,6.35-14.91,1.01-6.16,1.52-12.74,1.52-19.74v-155.96h39.47v151.27c0,15.64-1.75,29.08-5.24,40.3-3.5,11.23-9.8,19.88-18.91,25.95-9.11,6.07-22.04,9.11-38.78,9.11Z"/><path class="cls-2" d="m894.64,531.13v-193.5h-35.61v-30.09h111.52v30.09h-35.06v193.5h-40.85Z"/><path class="cls-2" d="m965.92,531.13l44.72-223.59h43.61l44.72,223.59h-37.82l-8.83-51.62h-38.92l-9.11,51.62h-38.37Zm51.62-77.57h30.37l-15.19-93.85-15.18,93.85Z"/><path class="cls-2" d="m1120.55,531.13v-223.59h40.58v93.58h45.55v-93.58h40.85v223.59h-40.85v-101.03h-45.55v101.03h-40.58Z"/><path class="cls-2" d="m1457.87,575.57c-4.6-2.21-9.52-5.52-14.77-9.94-5.24-4.41-10.4-9.43-15.46-15.04-5.07-5.62-9.44-11.18-13.11-16.7-.73.18-1.51.28-2.34.28h-2.62c-15.83,0-28.43-2.94-37.82-8.83-9.39-5.89-16.1-14.35-20.15-25.39-4.05-11.04-6.07-24.11-6.07-39.2v-83.64c0-15.09,2.02-28.02,6.07-38.78,4.05-10.77,10.77-19,20.15-24.7,9.39-5.7,21.99-8.56,37.82-8.56s28.98,2.86,38.37,8.56c9.39,5.71,16.1,13.94,20.15,24.7,4.04,10.77,6.07,23.7,6.07,38.78v83.92c0,10.67-1.01,20.33-3.04,28.98-2.03,8.65-5.34,16.15-9.94,22.5-4.6,6.35-10.68,11.27-18.22,14.77,2.39,2.58,4.88,5.25,7.45,8.01,2.57,2.76,5.15,5.34,7.73,7.73,2.58,2.39,5.06,4.32,7.45,5.79l-7.73,26.78Zm-48.31-71.5c6.8,0,11.87-1.47,15.18-4.41,3.31-2.94,5.52-6.99,6.62-12.15,1.11-5.15,1.66-10.77,1.66-16.84v-102.96c0-6.25-.55-11.87-1.66-16.84-1.1-4.97-3.31-8.88-6.62-11.73-3.31-2.85-8.38-4.28-15.18-4.28s-11.6,1.43-14.91,4.28c-3.31,2.86-5.48,6.76-6.49,11.73-1.01,4.97-1.51,10.58-1.51,16.84v102.96c0,6.07.5,11.69,1.51,16.84,1.01,5.15,3.18,9.2,6.49,12.15,3.31,2.94,8.28,4.41,14.91,4.41Z"/><path class="cls-2" d="m1561.22,534.17c-16.57,0-29.45-3.04-38.65-9.11-9.2-6.07-15.55-14.72-19.04-25.95-3.5-11.22-5.25-24.66-5.25-40.3v-151.27h39.75v155.96c0,7,.46,13.57,1.38,19.74.92,6.17,3.08,11.14,6.49,14.91,3.4,3.77,8.51,5.66,15.32,5.66,7.18,0,12.37-1.88,15.6-5.66,3.22-3.77,5.33-8.74,6.35-14.91,1.01-6.16,1.52-12.74,1.52-19.74v-155.96h39.47v151.27c0,15.64-1.75,29.08-5.24,40.3-3.5,11.23-9.8,19.88-18.91,25.95-9.11,6.07-22.04,9.11-38.78,9.11Z"/><path class="cls-2" d="m1638.78,531.13l44.72-223.59h43.61l44.72,223.59h-37.82l-8.83-51.62h-38.92l-9.11,51.62h-38.37Zm51.62-77.57h30.37l-15.19-93.85-15.18,93.85Z"/><path class="cls-2" d="m1792.87,531.13v-223.59h40.85v195.44h54.11v28.16h-94.96Z"/><path class="cls-2" d="m1908.71,531.13v-223.59h40.3v223.59h-40.3Z"/><path class="cls-2" d="m1998.7,531.13v-193.5h-35.61v-30.09h111.52v30.09h-35.06v193.5h-40.85Z"/><path class="cls-2" d="m2130.04,531.13v-85.3l-45.27-138.3h38.09l27.6,88.61,25.95-88.61h37.26l-44.72,138.3v85.3h-38.92Z"/><path class="cls-2" d="m715.1,793.33v-157.83h22.02v68.2h40.53v-68.2h22.02v157.83h-22.02v-73.85h-40.53v73.85h-22.02Z"/><path class="cls-2" d="m825.21,793.33v-157.83h61.19v16.37h-39.17v52.22h31.76v15.59h-31.76v57.87h39.56v15.78h-61.58Z"/><path class="cls-2" d="m904.01,793.33l33.52-157.83h21.24l33.71,157.83h-20.85l-7.21-39.75h-32.15l-7.6,39.75h-20.66Zm31.18-55.53h26.31l-13.25-71.12-13.05,71.12Z"/><path class="cls-2" d="m1021.45,793.33v-141.46h-26.7v-16.37h74.63v16.37h-25.92v141.46h-22.02Z"/><path class="cls-2" d="m1090.17,793.33v-157.83h21.63v157.83h-21.63Z"/><path class="cls-2" d="m1137.66,793.33v-157.83h15.01l44.82,104.83v-104.83h18.31v157.83h-14.03l-45.4-107.75v107.75h-18.71Z"/><path class="cls-2" d="m1280.19,795.28c-9.87,0-17.76-2.11-23.67-6.33-5.91-4.22-10.2-10.36-12.86-18.41-2.67-8.05-4-17.73-4-29.03v-52.8c0-11.56,1.2-21.4,3.61-29.52,2.4-8.12,6.69-14.32,12.86-18.61,6.17-4.29,14.77-6.43,25.82-6.43,9.87,0,17.83,1.66,23.87,4.97,6.05,3.31,10.43,8.38,13.15,15.2,2.73,6.82,4.09,15.43,4.09,25.82v5.85h-20.65v-4.87c0-6.88-.46-12.5-1.36-16.85-.91-4.35-2.76-7.6-5.56-9.74-2.79-2.14-7.18-3.21-13.15-3.21-6.5,0-11.2,1.49-14.13,4.48-2.92,2.99-4.74,7.05-5.46,12.18-.71,5.13-1.07,10.94-1.07,17.44v58.46c0,7.53.55,13.83,1.65,18.9,1.1,5.07,3.22,8.84,6.33,11.3,3.12,2.47,7.53,3.7,13.25,3.7s10.14-1.36,13.25-4.09c3.12-2.73,5.26-6.75,6.43-12.08,1.17-5.32,1.75-11.95,1.75-19.88v-10.91h-20.07v-15.59h39.95v78.14h-13.83l-2.14-18.12c-2.08,5.84-5.33,10.65-9.74,14.42-4.42,3.77-10.53,5.65-18.32,5.65Z"/><path class="cls-2" d="m1433.93,795.09c-7.15,0-13.28-1.53-18.41-4.58-5.13-3.05-9.03-7.24-11.69-12.57-2.67-5.32-4-11.43-4-18.32,0-10,2.24-18.67,6.72-26.01,4.48-7.34,9.9-13.87,16.27-19.58-2.34-4.68-4.84-9.38-7.5-14.13-2.66-4.74-4.94-9.67-6.82-14.81-1.89-5.13-2.83-10.49-2.83-16.08,0-7.02,1.36-13.12,4.1-18.32,2.73-5.19,6.62-9.26,11.69-12.18,5.07-2.92,11.04-4.38,17.92-4.38,6.36,0,12.05,1.17,17.05,3.51,5,2.34,9,5.69,11.98,10.04,2.99,4.35,4.48,9.58,4.48,15.69,0,6.89-1.59,13.48-4.78,19.78-3.18,6.3-7.05,12.15-11.59,17.53-4.55,5.39-8.97,10.17-13.25,14.32l23.77,37.41c1.43-2.73,2.63-5.81,3.61-9.26.97-3.44,1.81-7.11,2.53-11.01.71-3.9,1.26-7.66,1.65-11.3h20.66c0,5.07-.75,10.4-2.24,15.98-1.49,5.59-3.41,10.88-5.75,15.88-2.34,5-4.74,9.25-7.21,12.76,1.69,2.08,3.9,3.93,6.62,5.55,2.73,1.63,5.66,2.44,8.77,2.44v21.43h-2.73c-3.77-.13-7.15-1.01-10.14-2.63-2.99-1.62-5.68-3.6-8.08-5.94-2.4-2.34-4.71-4.55-6.92-6.63-3.51,4.42-8.09,8.09-13.74,11.01-5.65,2.92-12.37,4.38-20.17,4.38Zm0-17.34c4.94,0,9.09-1.2,12.47-3.6,3.38-2.4,6.3-5.1,8.77-8.09l-24.16-37.22c-3.12,4.03-5.62,8.74-7.5,14.12-1.88,5.39-2.82,10.95-2.82,16.66,0,2.99.39,5.88,1.17,8.67.78,2.79,2.14,5.07,4.09,6.82,1.95,1.75,4.61,2.63,7.99,2.63Zm2.14-74.04c2.73-3.25,5.29-7.08,7.7-11.5,2.4-4.41,4.38-9.12,5.95-14.13,1.56-5,2.34-9.9,2.34-14.71,0-3.77-1.17-6.72-3.51-8.87-2.34-2.14-5.39-3.21-9.16-3.21-4.68,0-7.99,1.82-9.94,5.46-1.95,3.64-2.92,7.73-2.92,12.28,0,5.98,1,11.92,3.02,17.83,2.01,5.91,4.19,11.53,6.52,16.86Z"/><path class="cls-2" d="m1612.41,795.09c-11.17,0-19.84-2.34-26.01-7.01-6.17-4.68-10.46-10.98-12.86-18.9-2.4-7.92-3.61-16.76-3.61-26.5v-55.73c0-10.65,1.2-19.94,3.61-27.87,2.4-7.92,6.69-14.06,12.86-18.41,6.17-4.35,14.84-6.53,26.01-6.53,9.87,0,17.7,1.82,23.48,5.46,5.78,3.64,9.94,8.84,12.47,15.59,2.53,6.75,3.8,14.88,3.8,24.36v12.47h-20.85v-11.11c0-5.84-.3-11.01-.88-15.49-.58-4.48-2.18-7.96-4.77-10.43-2.6-2.47-6.95-3.7-13.06-3.7s-10.78,1.33-13.64,3.99c-2.86,2.66-4.71,6.43-5.56,11.3-.85,4.87-1.26,10.55-1.26,17.05v62.55c0,7.92.65,14.19,1.95,18.8,1.3,4.61,3.44,7.89,6.43,9.84,2.99,1.95,7.01,2.92,12.08,2.92,5.97,0,10.26-1.33,12.86-3.99,2.59-2.66,4.22-6.33,4.87-11.01.65-4.68.97-10.13.97-16.37v-11.69h20.85v11.69c0,9.61-1.17,18.09-3.51,25.43-2.34,7.34-6.36,13.06-12.08,17.15-5.72,4.09-13.77,6.14-24.16,6.14Z"/><path class="cls-2" d="m1717.07,795.09c-10.65,0-19.16-2.08-25.52-6.23-6.37-4.16-10.92-10.1-13.64-17.83-2.73-7.73-4.09-16.79-4.09-27.18v-59.82c0-10.39,1.4-19.32,4.19-26.79,2.79-7.47,7.34-13.18,13.64-17.15,6.3-3.96,14.78-5.94,25.43-5.94s19.1,2.02,25.33,6.04c6.23,4.03,10.75,9.74,13.54,17.15,2.79,7.41,4.19,16.3,4.19,26.7v60.02c0,10.26-1.4,19.23-4.19,26.89-2.79,7.67-7.31,13.61-13.54,17.83-6.23,4.22-14.68,6.33-25.33,6.33Zm0-17.34c5.84,0,10.26-1.2,13.25-3.6,2.98-2.4,5-5.78,6.04-10.13,1.04-4.35,1.56-9.45,1.56-15.3v-69.17c0-5.84-.52-10.88-1.56-15.1-1.04-4.22-3.06-7.47-6.04-9.74-2.99-2.27-7.41-3.41-13.25-3.41s-10.29,1.14-13.35,3.41c-3.05,2.27-5.1,5.52-6.13,9.74-1.04,4.22-1.56,9.25-1.56,15.1v69.17c0,5.84.52,10.94,1.56,15.3,1.04,4.35,3.08,7.73,6.13,10.13,3.06,2.4,7.5,3.6,13.35,3.6Z"/><path class="cls-2" d="m1825.3,795.09c-10.65,0-19.16-2.08-25.52-6.23-6.37-4.16-10.92-10.1-13.64-17.83-2.73-7.73-4.09-16.79-4.09-27.18v-59.82c0-10.39,1.4-19.32,4.19-26.79,2.79-7.47,7.34-13.18,13.64-17.15,6.3-3.96,14.78-5.94,25.43-5.94s19.1,2.02,25.33,6.04c6.23,4.03,10.75,9.74,13.54,17.15,2.79,7.41,4.19,16.3,4.19,26.7v60.02c0,10.26-1.4,19.23-4.19,26.89-2.79,7.67-7.31,13.61-13.54,17.83-6.23,4.22-14.68,6.33-25.33,6.33Zm0-17.34c5.84,0,10.26-1.2,13.25-3.6,2.98-2.4,5-5.78,6.04-10.13,1.04-4.35,1.56-9.45,1.56-15.3v-69.17c0-5.84-.52-10.88-1.56-15.1-1.04-4.22-3.06-7.47-6.04-9.74-2.99-2.27-7.41-3.41-13.25-3.41s-10.29,1.14-13.35,3.41c-3.05,2.27-5.1,5.52-6.13,9.74-1.04,4.22-1.56,9.25-1.56,15.1v69.17c0,5.84.52,10.94,1.56,15.3,1.04,4.35,3.08,7.73,6.13,10.13,3.06,2.4,7.5,3.6,13.35,3.6Z"/><path class="cls-2" d="m1892.14,793.33v-157.83h22.02v142.05h40.33v15.78h-62.36Z"/><path class="cls-2" d="m1971.24,793.33v-157.83h21.63v157.83h-21.63Z"/><path class="cls-2" d="m2018.73,793.33v-157.83h15.01l44.82,104.83v-104.83h18.31v157.83h-14.03l-45.4-107.75v107.75h-18.71Z"/><path class="cls-2" d="m2161.26,795.28c-9.87,0-17.76-2.11-23.67-6.33-5.91-4.22-10.2-10.36-12.86-18.41-2.67-8.05-4-17.73-4-29.03v-52.8c0-11.56,1.2-21.4,3.61-29.52,2.4-8.12,6.69-14.32,12.86-18.61,6.17-4.29,14.77-6.43,25.82-6.43,9.87,0,17.83,1.66,23.87,4.97,6.05,3.31,10.43,8.38,13.15,15.2,2.73,6.82,4.09,15.43,4.09,25.82v5.85h-20.65v-4.87c0-6.88-.46-12.5-1.36-16.85-.91-4.35-2.76-7.6-5.56-9.74-2.79-2.14-7.18-3.21-13.15-3.21-6.5,0-11.2,1.49-14.13,4.48-2.92,2.99-4.74,7.05-5.46,12.18-.71,5.13-1.07,10.94-1.07,17.44v58.46c0,7.53.55,13.83,1.65,18.9,1.1,5.07,3.22,8.84,6.33,11.3,3.12,2.47,7.53,3.7,13.25,3.7s10.14-1.36,13.25-4.09c3.12-2.73,5.26-6.75,6.43-12.08,1.17-5.32,1.75-11.95,1.75-19.88v-10.91h-20.07v-15.59h39.95v78.14h-13.83l-2.14-18.12c-2.08,5.84-5.33,10.65-9.74,14.42-4.42,3.77-10.53,5.65-18.32,5.65Z"/></svg>