<?xml version="1.0" encoding="UTF-8"?><svg id="Layer_1" xmlns="http://www.w3.org/2000/svg" xmlns:xlink="http://www.w3.org/1999/xlink" viewBox="0 0 1093.84 1351.17"><defs><style>.cls-1{fill:url(#linear-gradient);}.cls-2{fill:#231f20;}</style><linearGradient id="linear-gradient" x1="546.99" y1="1055.91" x2="546.99" y2="0" gradientUnits="userSpaceOnUse"><stop offset=".2" stop-color="#6ff"/><stop offset=".8" stop-color="#ff6427"/></linearGradient></defs><path class="cls-1" d="m512.55,300.31l-21.91-92.16,13.99-24.65,191.9-39.53-181.86-72.88L403.98,0l-128.49,93.58-3.38,37.79H.14v924.54h745.63V300.31h-233.22Zm-212.35-24.14l9.3-103.9,3.66-40.9,1.4-15.65,90.86-66.18,88.77,57.02,60.88,24.79-73.91,15.22-2.96.61-31.09,54.77,33.1,139.26.97,4.09,48.13,53.82,52.92,94.77,17.22,105.72-95.88-140.38,5.23,274.79-23.01,100.46,42.7,31.78,13.82,25.92-40.42-10.18-41.52-30.32-122.67,2.42,42.94,52.02,2.8,19.92-29.85-10.45-48.51-58.47-49.03-14.8-34.35,28.87-39.84.72,56.17-48.29,22.99-44.22-13.87-101.02,17.55-282.08-88.6,206.57-33.83,47.42,10.47-120.65,75.91-177.91,71.54-75.54Zm404.67,738.84H41.04V172.27h227.4l-7.71,86.09-66.8,70.55-81.35,190.66-23.98,276.38,120.81-169.33-3.31,53.27,12.66,92.18-13.35,25.68-136.22,117.11,167.75-3.04,28.51-23.95,16.05,4.84,47.89,57.73,103.92,36.38-13.12-93.44,27.24-.54,36.8,26.88,137.61,34.66-61.53-115.46-28.66-21.32,18.18-79.34-2.72-142.8,122.3,179.07-47.93-294.29-58.63-105-30.42-34.02h172.45v673.8ZM1062.58,100.35c-.71.08-72.14,7.65-97.6,7.45-29.47-.29-38.47-5.11-40.63-6.68,1.31-5.68,13.23-18.73,25.21-27.39l43.11-31.01-53.07,1.78c-110.61,3.71-182.51,84.2-185.52,87.62l-9.03,10.29,8.68,10.59c52.74,64.3,177.84,83.81,183.14,84.6l60.31,9.07-47.96-37.73c-5.9-4.64-11.99-11.67-13.71-15.58,2.51-1.39,9.39-4.09,25.86-5.03,82.51-4.74,115.62-61.56,116.98-63.97l15.5-27.36-31.26,3.36Zm-103.07,55.75c-11.81.68-47.79,2.74-55.44,27.3-1.48,4.75-1.6,9.46-.79,13.98-34.42-8.98-84.06-25.95-114.57-54.24,17.55-16.13,56.28-46.88,108.53-60.15-4.69,8.83-6.94,18.48-3.89,28.1,8.05,25.42,44.55,28.71,71.3,28.98,12.89.17,35.87-1.52,56.6-3.31-14.38,9.35-34.6,17.78-61.75,19.33Z"/><path class="cls-2" d="m31.52,1220.4c-8.3,0-14.75-1.52-19.36-4.56-4.61-3.04-7.79-7.37-9.54-13-1.75-5.62-2.63-12.35-2.63-20.18v-75.76h19.91v78.11c0,3.5.23,6.8.69,9.88.46,3.09,1.54,5.58,3.25,7.47,1.7,1.89,4.26,2.83,7.67,2.83,3.59,0,6.2-.94,7.81-2.83,1.61-1.89,2.67-4.38,3.18-7.47.51-3.09.76-6.38.76-9.88v-78.11h19.77v75.76c0,7.83-.88,14.56-2.63,20.18-1.75,5.62-4.91,9.95-9.47,13-4.56,3.04-11.04,4.56-19.42,4.56Z"/><path class="cls-2" d="m90.41,1218.88v-96.91h-17.83v-15.07h55.85v15.07h-17.56v96.91h-20.46Z"/><path class="cls-2" d="m126.11,1218.88l22.39-111.98h21.84l22.4,111.98h-18.94l-4.42-25.85h-19.49l-4.56,25.85h-19.22Zm25.85-38.85h15.21l-7.6-47-7.6,47Z"/><path class="cls-2" d="m203.55,1218.88v-111.98h20.32v46.86h22.81v-46.86h20.46v111.98h-20.46v-50.6h-22.81v50.6h-20.32Z"/><path class="cls-2" d="m372.48,1241.13c-2.31-1.11-4.77-2.77-7.4-4.98-2.63-2.21-5.21-4.72-7.74-7.53-2.54-2.81-4.73-5.6-6.57-8.36-.37.09-.76.14-1.17.14h-1.31c-7.93,0-14.24-1.47-18.94-4.42-4.7-2.95-8.06-7.19-10.09-12.72-2.03-5.53-3.04-12.07-3.04-19.63v-41.89c0-7.56,1.01-14.03,3.04-19.42,2.03-5.39,5.39-9.51,10.09-12.37,4.7-2.86,11.01-4.29,18.94-4.29s14.52,1.43,19.22,4.29c4.7,2.86,8.06,6.98,10.09,12.37,2.02,5.39,3.04,11.87,3.04,19.42v42.03c0,5.35-.51,10.18-1.52,14.51-1.01,4.33-2.67,8.09-4.98,11.27-2.31,3.18-5.35,5.65-9.12,7.4,1.2,1.29,2.44,2.63,3.73,4.01,1.29,1.38,2.58,2.67,3.87,3.87,1.29,1.2,2.53,2.16,3.73,2.9l-3.87,13.41Zm-24.19-35.81c3.41,0,5.94-.74,7.6-2.21,1.66-1.47,2.77-3.5,3.32-6.08.55-2.58.83-5.39.83-8.43v-51.56c0-3.13-.28-5.94-.83-8.43-.55-2.49-1.66-4.45-3.32-5.88-1.66-1.43-4.2-2.14-7.6-2.14s-5.81.72-7.47,2.14c-1.66,1.43-2.74,3.39-3.25,5.88-.51,2.49-.76,5.3-.76,8.43v51.56c0,3.04.25,5.85.76,8.43.51,2.58,1.59,4.61,3.25,6.08,1.66,1.47,4.15,2.21,7.47,2.21Z"/><path class="cls-2" d="m424.23,1220.4c-8.3,0-14.75-1.52-19.36-4.56-4.61-3.04-7.79-7.37-9.54-13-1.75-5.62-2.63-12.35-2.63-20.18v-75.76h19.91v78.11c0,3.5.23,6.8.69,9.88.46,3.09,1.54,5.58,3.25,7.47,1.7,1.89,4.26,2.83,7.67,2.83,3.59,0,6.2-.94,7.81-2.83,1.61-1.89,2.67-4.38,3.18-7.47.51-3.09.76-6.38.76-9.88v-78.11h19.77v75.76c0,7.83-.88,14.56-2.63,20.18-1.75,5.62-4.91,9.95-9.47,13-4.56,3.04-11.04,4.56-19.42,4.56Z"/><path class="cls-2" d="m463.08,1218.88l22.39-111.98h21.84l22.4,111.98h-18.94l-4.42-25.85h-19.49l-4.56,25.85h-19.22Zm25.85-38.85h15.21l-7.6-47-7.6,47Z"/><path class="cls-2" d="m540.25,1218.88v-111.98h20.46v97.88h27.1v14.1h-47.56Z"/><path class="cls-2" d="m598.26,1218.88v-111.98h20.18v111.98h-20.18Z"/><path class="cls-2" d="m643.33,1218.88v-96.91h-17.83v-15.07h55.85v15.07h-17.56v96.91h-20.46Z"/><path class="cls-2" d="m709.1,1218.88v-42.72l-22.67-69.26h19.08l13.82,44.38,13-44.38h18.66l-22.39,69.26v42.72h-19.49Z"/><path class="cls-2" d="m.5,1350.19v-79.04h11.03v34.16h20.3v-34.16h11.03v79.04h-11.03v-36.98H11.52v36.98H.5Z"/><path class="cls-2" d="m55.64,1350.19v-79.04h30.64v8.2h-19.61v26.15h15.91v7.81h-15.91v28.98h19.81v7.9h-30.84Z"/><path class="cls-2" d="m95.1,1350.19l16.78-79.04h10.64l16.88,79.04h-10.44l-3.61-19.91h-16.1l-3.81,19.91h-10.35Zm15.61-27.81h13.17l-6.64-35.62-6.54,35.62Z"/><path class="cls-2" d="m153.92,1350.19v-70.85h-13.37v-8.2h37.38v8.2h-12.98v70.85h-11.03Z"/><path class="cls-2" d="m188.33,1350.19v-79.04h10.83v79.04h-10.83Z"/><path class="cls-2" d="m212.11,1350.19v-79.04h7.52l22.44,52.5v-52.5h9.17v79.04h-7.03l-22.74-53.96v53.96h-9.37Z"/><path class="cls-2" d="m283.5,1351.17c-4.95,0-8.9-1.06-11.86-3.17-2.96-2.11-5.11-5.19-6.44-9.22-1.34-4.03-2-8.88-2-14.54v-26.44c0-5.79.6-10.72,1.81-14.78,1.2-4.06,3.35-7.17,6.44-9.32,3.09-2.15,7.4-3.22,12.93-3.22,4.95,0,8.93.83,11.95,2.49,3.03,1.66,5.22,4.2,6.59,7.61,1.37,3.41,2.05,7.73,2.05,12.93v2.93h-10.34v-2.44c0-3.45-.23-6.26-.68-8.44-.46-2.18-1.38-3.81-2.78-4.88s-3.6-1.61-6.59-1.61c-3.25,0-5.61.75-7.08,2.24-1.46,1.5-2.38,3.53-2.73,6.1-.36,2.57-.54,5.48-.54,8.73v29.28c0,3.77.28,6.93.83,9.46.55,2.54,1.61,4.43,3.17,5.66,1.56,1.24,3.77,1.85,6.63,1.85s5.08-.68,6.64-2.05c1.56-1.37,2.63-3.38,3.22-6.05.59-2.67.88-5.98.88-9.95v-5.46h-10.05v-7.81h20v39.13h-6.93l-1.07-9.08c-1.04,2.93-2.67,5.34-4.88,7.22-2.21,1.89-5.27,2.83-9.17,2.83Z"/><path class="cls-2" d="m360.49,1351.07c-3.58,0-6.65-.77-9.22-2.29-2.57-1.53-4.52-3.63-5.85-6.29-1.34-2.67-2-5.72-2-9.17,0-5.01,1.12-9.35,3.37-13.03,2.24-3.67,4.96-6.94,8.15-9.81-1.17-2.34-2.43-4.7-3.76-7.08-1.33-2.37-2.47-4.85-3.41-7.42-.95-2.57-1.42-5.25-1.42-8.05,0-3.51.68-6.57,2.05-9.17,1.37-2.6,3.32-4.64,5.85-6.1,2.54-1.46,5.53-2.2,8.98-2.2,3.19,0,6.04.59,8.54,1.76,2.5,1.17,4.5,2.85,6,5.03,1.5,2.18,2.24,4.8,2.24,7.86,0,3.45-.8,6.75-2.39,9.9-1.59,3.16-3.53,6.08-5.8,8.78-2.28,2.7-4.49,5.09-6.64,7.17l11.91,18.74c.71-1.37,1.32-2.91,1.81-4.64.49-1.72.91-3.56,1.27-5.51.36-1.95.63-3.84.83-5.66h10.35c0,2.54-.38,5.21-1.12,8-.75,2.8-1.71,5.45-2.88,7.95-1.17,2.5-2.38,4.63-3.61,6.39.84,1.04,1.95,1.97,3.32,2.78,1.37.81,2.83,1.22,4.39,1.22v10.73h-1.37c-1.89-.07-3.58-.5-5.08-1.32-1.5-.81-2.85-1.81-4.05-2.98-1.2-1.17-2.36-2.28-3.47-3.32-1.76,2.21-4.05,4.05-6.88,5.51-2.83,1.46-6.2,2.2-10.1,2.2Zm0-8.69c2.47,0,4.55-.6,6.24-1.81,1.69-1.2,3.16-2.55,4.39-4.05l-12.1-18.64c-1.56,2.02-2.82,4.38-3.76,7.07-.94,2.7-1.41,5.48-1.41,8.34,0,1.5.2,2.95.59,4.34.39,1.4,1.07,2.54,2.05,3.41.98.88,2.31,1.32,4,1.32Zm1.07-37.08c1.37-1.63,2.65-3.55,3.86-5.76,1.2-2.21,2.19-4.57,2.98-7.08.78-2.5,1.17-4.96,1.17-7.37,0-1.89-.59-3.37-1.76-4.44-1.17-1.07-2.7-1.61-4.59-1.61-2.34,0-4,.91-4.98,2.73-.98,1.82-1.46,3.87-1.46,6.15,0,2.99.5,5.97,1.51,8.93,1.01,2.96,2.1,5.77,3.27,8.44Z"/><path class="cls-2" d="m449.87,1351.07c-5.59,0-9.94-1.17-13.03-3.51-3.09-2.34-5.24-5.5-6.44-9.47-1.2-3.97-1.81-8.39-1.81-13.27v-27.91c0-5.33.6-9.99,1.81-13.96,1.2-3.97,3.35-7.04,6.44-9.22,3.09-2.18,7.43-3.27,13.03-3.27,4.95,0,8.86.91,11.76,2.73,2.89,1.82,4.98,4.43,6.25,7.81,1.27,3.38,1.9,7.45,1.9,12.2v6.25h-10.44v-5.56c0-2.93-.15-5.51-.44-7.76-.29-2.25-1.09-3.99-2.39-5.22-1.3-1.23-3.48-1.85-6.54-1.85s-5.4.67-6.83,2c-1.43,1.33-2.36,3.22-2.78,5.66-.42,2.44-.63,5.29-.63,8.54v31.32c0,3.97.32,7.11.98,9.42.65,2.31,1.72,3.95,3.22,4.93,1.5.98,3.51,1.46,6.05,1.46,2.99,0,5.14-.67,6.44-2,1.3-1.33,2.11-3.17,2.44-5.51.32-2.34.49-5.07.49-8.2v-5.86h10.44v5.86c0,4.81-.59,9.06-1.76,12.73-1.17,3.68-3.19,6.54-6.05,8.59-2.86,2.05-6.9,3.07-12.1,3.07Z"/><path class="cls-2" d="m502.29,1351.07c-5.33,0-9.6-1.04-12.78-3.12-3.19-2.08-5.47-5.06-6.83-8.93-1.37-3.87-2.05-8.41-2.05-13.61v-29.96c0-5.2.7-9.68,2.1-13.42,1.4-3.74,3.67-6.6,6.83-8.59,3.16-1.98,7.4-2.98,12.73-2.98s9.56,1.01,12.69,3.02c3.12,2.02,5.38,4.88,6.78,8.59,1.4,3.71,2.1,8.17,2.1,13.37v30.06c0,5.14-.7,9.63-2.1,13.47-1.4,3.84-3.66,6.82-6.78,8.93-3.12,2.11-7.35,3.17-12.69,3.17Zm0-8.69c2.93,0,5.14-.6,6.64-1.81,1.49-1.2,2.5-2.89,3.02-5.07.52-2.18.78-4.73.78-7.66v-34.64c0-2.93-.26-5.45-.78-7.56-.52-2.11-1.53-3.74-3.02-4.88-1.5-1.14-3.71-1.71-6.64-1.71s-5.15.57-6.68,1.71c-1.53,1.14-2.55,2.77-3.07,4.88-.52,2.11-.78,4.63-.78,7.56v34.64c0,2.93.26,5.48.78,7.66.52,2.18,1.54,3.87,3.07,5.07,1.53,1.2,3.76,1.81,6.68,1.81Z"/><path class="cls-2" d="m556.49,1351.07c-5.33,0-9.6-1.04-12.78-3.12-3.19-2.08-5.47-5.06-6.83-8.93-1.37-3.87-2.05-8.41-2.05-13.61v-29.96c0-5.2.7-9.68,2.1-13.42,1.4-3.74,3.67-6.6,6.83-8.59,3.16-1.98,7.4-2.98,12.73-2.98s9.56,1.01,12.69,3.02c3.12,2.02,5.38,4.88,6.78,8.59,1.4,3.71,2.1,8.17,2.1,13.37v30.06c0,5.14-.7,9.63-2.1,13.47-1.4,3.84-3.66,6.82-6.78,8.93-3.12,2.11-7.35,3.17-12.69,3.17Zm0-8.69c2.93,0,5.14-.6,6.64-1.81,1.49-1.2,2.5-2.89,3.02-5.07.52-2.18.78-4.73.78-7.66v-34.64c0-2.93-.26-5.45-.78-7.56-.52-2.11-1.53-3.74-3.02-4.88-1.5-1.14-3.71-1.71-6.64-1.71s-5.15.57-6.68,1.71c-1.53,1.14-2.55,2.77-3.07,4.88-.52,2.11-.78,4.63-.78,7.56v34.64c0,2.93.26,5.48.78,7.66.52,2.18,1.54,3.87,3.07,5.07,1.53,1.2,3.76,1.81,6.68,1.81Z"/><path class="cls-2" d="m589.96,1350.19v-79.04h11.03v71.14h20.2v7.9h-31.23Z"/><path class="cls-2" d="m629.58,1350.19v-79.04h10.83v79.04h-10.83Z"/><path class="cls-2" d="m653.36,1350.19v-79.04h7.52l22.44,52.5v-52.5h9.17v79.04h-7.03l-22.74-53.96v53.96h-9.37Z"/><path class="cls-2" d="m724.74,1351.17c-4.95,0-8.9-1.06-11.86-3.17-2.96-2.11-5.11-5.19-6.44-9.22-1.34-4.03-2-8.88-2-14.54v-26.44c0-5.79.6-10.72,1.81-14.78,1.2-4.06,3.35-7.17,6.44-9.32,3.09-2.15,7.4-3.22,12.93-3.22,4.95,0,8.93.83,11.95,2.49,3.03,1.66,5.22,4.2,6.59,7.61,1.37,3.41,2.05,7.73,2.05,12.93v2.93h-10.34v-2.44c0-3.45-.23-6.26-.68-8.44-.46-2.18-1.38-3.81-2.78-4.88-1.4-1.07-3.6-1.61-6.59-1.61-3.25,0-5.61.75-7.08,2.24-1.46,1.5-2.38,3.53-2.73,6.1-.36,2.57-.54,5.48-.54,8.73v29.28c0,3.77.28,6.93.83,9.46.55,2.54,1.61,4.43,3.17,5.66,1.56,1.24,3.77,1.85,6.63,1.85s5.08-.68,6.64-2.05c1.56-1.37,2.63-3.38,3.22-6.05.59-2.67.88-5.98.88-9.95v-5.46h-10.05v-7.81h20v39.13h-6.93l-1.07-9.08c-1.04,2.93-2.67,5.34-4.88,7.22-2.21,1.89-5.27,2.83-9.17,2.83Z"/></svg>