<?xml version="1.0" encoding="UTF-8"?><svg id="Layer_1" xmlns="http://www.w3.org/2000/svg" viewBox="0 0 802.45 991.22"><defs><style>.cls-1{fill:#231f20;}</style></defs><path class="cls-1" d="m376.01,220.31l-16.07-67.61,10.26-18.08,140.78-29-133.41-53.47L296.36,0l-94.26,68.65-2.48,27.72H.1v678.24h547V220.31h-171.09Zm-155.78-17.71l6.82-76.22,2.69-30,1.03-11.48,66.66-48.55,65.12,41.83,44.66,18.19-54.22,11.17-2.17.45-22.81,40.18,24.28,102.16.71,3,35.31,39.48,38.82,69.53,12.64,77.56-70.34-102.99,3.84,201.58-16.88,73.69,31.32,23.31,10.14,19.02-29.65-7.47-30.46-22.24-89.99,1.77,31.5,38.17,2.05,14.61-21.9-7.67-35.59-42.89-35.97-10.86-25.2,21.18-29.23.53,41.21-35.43,16.86-32.44-10.18-74.11,12.88-206.93-64.99,151.54-24.82,34.78,7.68-88.51,55.68-130.52,52.48-55.42Zm296.86,542.01H30.11V126.38h166.82l-5.66,63.16-49.01,51.76-59.68,139.87-17.59,202.75,88.63-124.22-2.43,39.08,9.28,67.62-9.79,18.84-99.93,85.91,123.06-2.23,20.91-17.57,11.78,3.55,35.13,42.35,76.23,26.69-9.62-68.55,19.99-.4,27,19.72,100.95,25.43-45.14-84.7-21.02-15.64,13.33-58.2-2-104.76,89.72,131.37-35.16-215.9-43.01-77.03-22.32-24.95h126.51v494.3ZM779.51,73.62c-.52.06-52.92,5.61-71.6,5.47-21.62-.22-28.22-3.75-29.81-4.9.96-4.17,9.71-13.74,18.5-20.1l31.63-22.75-38.93,1.3c-81.15,2.72-133.89,61.77-136.1,64.28l-6.63,7.55,6.37,7.77c38.69,47.17,130.46,61.48,134.35,62.06l44.24,6.65-35.19-27.68c-4.33-3.4-8.8-8.56-10.06-11.43,1.84-1.02,6.89-3,18.97-3.69,60.53-3.47,84.82-45.16,85.82-46.93l11.37-20.07-22.93,2.47Zm-75.61,40.9c-8.67.5-35.06,2.01-40.67,20.03-1.09,3.49-1.17,6.94-.58,10.26-25.25-6.59-61.67-19.04-84.05-39.79,12.88-11.83,41.29-34.39,79.62-44.12-3.44,6.48-5.09,13.56-2.86,20.62,5.9,18.65,32.68,21.06,52.31,21.26,9.46.12,26.32-1.11,41.52-2.43-10.55,6.86-25.38,13.04-45.3,14.18Z"/><path class="cls-1" d="m23.12,895.29c-6.09,0-10.82-1.12-14.2-3.35-3.38-2.23-5.71-5.41-7-9.53-1.29-4.12-1.93-9.06-1.93-14.81v-55.58h14.6v57.3c0,2.57.17,4.99.51,7.25.34,2.27,1.13,4.09,2.38,5.48,1.25,1.39,3.12,2.08,5.63,2.08,2.64,0,4.55-.69,5.73-2.08,1.18-1.38,1.96-3.21,2.33-5.48.37-2.26.56-4.68.56-7.25v-57.3h14.5v55.58c0,5.75-.64,10.68-1.93,14.81-1.28,4.12-3.6,7.3-6.95,9.53-3.35,2.23-8.1,3.35-14.25,3.35Z"/><path class="cls-1" d="m66.33,894.17v-71.09h-13.08v-11.05h40.97v11.05h-12.88v71.09h-15.01Z"/><path class="cls-1" d="m92.51,894.17l16.43-82.15h16.02l16.43,82.15h-13.89l-3.25-18.96h-14.3l-3.35,18.96h-14.1Zm18.96-28.5h11.16l-5.58-34.48-5.58,34.48Z"/><path class="cls-1" d="m149.32,894.17v-82.15h14.91v34.38h16.73v-34.38h15.01v82.15h-15.01v-37.12h-16.73v37.12h-14.91Z"/><path class="cls-1" d="m273.25,910.5c-1.69-.81-3.5-2.03-5.43-3.65-1.93-1.62-3.82-3.47-5.68-5.53-1.86-2.06-3.47-4.11-4.82-6.14-.27.07-.56.1-.86.1h-.96c-5.82,0-10.45-1.08-13.89-3.25-3.45-2.16-5.92-5.27-7.4-9.33-1.49-4.06-2.23-8.86-2.23-14.4v-30.73c0-5.54.74-10.29,2.23-14.25,1.49-3.96,3.96-6.98,7.4-9.08,3.45-2.1,8.08-3.14,13.89-3.14s10.65,1.05,14.1,3.14c3.45,2.1,5.91,5.12,7.4,9.08,1.48,3.96,2.23,8.71,2.23,14.25v30.83c0,3.92-.37,7.47-1.12,10.65-.74,3.18-1.96,5.93-3.65,8.27-1.69,2.33-3.92,4.14-6.69,5.43.88.95,1.79,1.93,2.74,2.94.94,1.01,1.89,1.96,2.84,2.84.95.88,1.86,1.59,2.74,2.13l-2.84,9.84Zm-17.75-26.27c2.5,0,4.36-.54,5.58-1.62,1.22-1.08,2.03-2.57,2.43-4.46.41-1.89.61-3.96.61-6.19v-37.83c0-2.3-.2-4.36-.61-6.19-.4-1.83-1.22-3.26-2.43-4.31-1.22-1.05-3.08-1.57-5.58-1.57s-4.26.52-5.48,1.57c-1.22,1.05-2.01,2.48-2.38,4.31-.37,1.83-.56,3.89-.56,6.19v37.83c0,2.23.18,4.29.56,6.19.37,1.89,1.17,3.38,2.38,4.46,1.22,1.08,3.04,1.62,5.48,1.62Z"/><path class="cls-1" d="m311.22,895.29c-6.09,0-10.82-1.12-14.2-3.35s-5.71-5.41-7-9.53c-1.29-4.12-1.93-9.06-1.93-14.81v-55.58h14.6v57.3c0,2.57.17,4.99.51,7.25.34,2.27,1.13,4.09,2.38,5.48,1.25,1.39,3.12,2.08,5.63,2.08,2.64,0,4.55-.69,5.73-2.08,1.18-1.38,1.96-3.21,2.33-5.48.37-2.26.56-4.68.56-7.25v-57.3h14.5v55.58c0,5.75-.64,10.68-1.93,14.81-1.28,4.12-3.6,7.3-6.95,9.53-3.35,2.23-8.1,3.35-14.25,3.35Z"/><path class="cls-1" d="m339.72,894.17l16.43-82.15h16.02l16.43,82.15h-13.89l-3.25-18.96h-14.3l-3.35,18.96h-14.1Zm18.96-28.5h11.16l-5.58-34.48-5.58,34.48Z"/><path class="cls-1" d="m396.33,894.17v-82.15h15.01v71.8h19.88v10.34h-34.89Z"/><path class="cls-1" d="m438.89,894.17v-82.15h14.81v82.15h-14.81Z"/><path class="cls-1" d="m471.95,894.17v-71.09h-13.08v-11.05h40.97v11.05h-12.88v71.09h-15.01Z"/><path class="cls-1" d="m520.2,894.17v-31.34l-16.63-50.81h13.99l10.14,32.55,9.53-32.55h13.69l-16.43,50.81v31.34h-14.3Z"/><path class="cls-1" d="m.36,990.51v-57.99h8.09v25.06h14.89v-25.06h8.09v57.99h-8.09v-27.13h-14.89v27.13H.36Z"/><path class="cls-1" d="m40.82,990.51v-57.99h22.48v6.01h-14.39v19.19h11.67v5.73h-11.67v21.26h14.53v5.8h-22.62Z"/><path class="cls-1" d="m69.77,990.51l12.31-57.99h7.8l12.39,57.99h-7.66l-2.65-14.6h-11.81l-2.79,14.6h-7.59Zm11.45-20.4h9.67l-4.87-26.13-4.8,26.13Z"/><path class="cls-1" d="m112.91,990.51v-51.97h-9.81v-6.01h27.42v6.01h-9.52v51.97h-8.09Z"/><path class="cls-1" d="m138.16,990.51v-57.99h7.95v57.99h-7.95Z"/><path class="cls-1" d="m155.61,990.51v-57.99h5.51l16.47,38.51v-38.51h6.73v57.99h-5.15l-16.68-39.59v39.59h-6.87Z"/><path class="cls-1" d="m207.97,991.22c-3.63,0-6.53-.78-8.7-2.33-2.17-1.55-3.75-3.81-4.72-6.77-.98-2.96-1.47-6.51-1.47-10.67v-19.4c0-4.25.44-7.86,1.33-10.85.88-2.98,2.46-5.26,4.72-6.84,2.27-1.57,5.43-2.36,9.49-2.36,3.63,0,6.55.61,8.77,1.83,2.22,1.22,3.83,3.08,4.83,5.58,1,2.51,1.5,5.67,1.5,9.49v2.15h-7.59v-1.79c0-2.53-.17-4.59-.5-6.19-.34-1.6-1.01-2.79-2.04-3.58-1.03-.79-2.64-1.18-4.83-1.18-2.39,0-4.11.55-5.19,1.65-1.07,1.1-1.74,2.59-2,4.47-.26,1.89-.39,4.02-.39,6.41v21.48c0,2.77.2,5.08.61,6.94.4,1.86,1.18,3.25,2.33,4.15,1.15.91,2.77,1.36,4.87,1.36s3.72-.5,4.87-1.5c1.15-1,1.93-2.48,2.36-4.44.43-1.96.64-4.39.64-7.3v-4.01h-7.37v-5.73h14.68v28.71h-5.08l-.79-6.66c-.76,2.15-1.96,3.91-3.58,5.3-1.62,1.38-3.87,2.08-6.73,2.08Z"/><path class="cls-1" d="m264.45,991.15c-2.63,0-4.88-.56-6.77-1.68-1.89-1.12-3.32-2.66-4.29-4.62-.98-1.96-1.47-4.2-1.47-6.73,0-3.67.82-6.86,2.47-9.56,1.65-2.7,3.64-5.09,5.98-7.19-.86-1.72-1.78-3.45-2.76-5.19-.98-1.74-1.81-3.55-2.51-5.44-.69-1.89-1.04-3.85-1.04-5.91,0-2.58.5-4.82,1.51-6.73,1-1.91,2.43-3.4,4.29-4.47,1.86-1.07,4.06-1.61,6.59-1.61,2.34,0,4.43.43,6.26,1.29,1.84.86,3.3,2.09,4.4,3.69,1.1,1.6,1.65,3.52,1.65,5.76,0,2.53-.58,4.95-1.75,7.27-1.17,2.32-2.59,4.46-4.26,6.44-1.67,1.98-3.29,3.74-4.87,5.26l8.73,13.75c.52-1,.97-2.14,1.33-3.4.36-1.26.67-2.61.93-4.04.26-1.43.46-2.82.61-4.15h7.59c0,1.86-.28,3.82-.82,5.87-.55,2.05-1.25,4-2.11,5.83-.86,1.84-1.74,3.4-2.65,4.69.62.76,1.43,1.44,2.43,2.04,1,.6,2.08.89,3.22.89v7.87h-1c-1.39-.05-2.63-.37-3.72-.97s-2.09-1.32-2.97-2.18c-.88-.86-1.73-1.67-2.54-2.43-1.29,1.62-2.97,2.97-5.05,4.05-2.08,1.07-4.55,1.61-7.41,1.61Zm0-6.37c1.81,0,3.34-.44,4.58-1.32,1.24-.88,2.32-1.87,3.22-2.97l-8.88-13.67c-1.15,1.48-2.07,3.21-2.76,5.19-.69,1.98-1.04,4.02-1.04,6.12,0,1.1.14,2.16.43,3.19.29,1.03.79,1.86,1.5,2.51.72.64,1.69.97,2.93.97Zm.79-27.2c1-1.19,1.94-2.6,2.83-4.22.88-1.62,1.61-3.35,2.18-5.19.57-1.84.86-3.64.86-5.4,0-1.38-.43-2.47-1.29-3.26-.86-.79-1.98-1.18-3.36-1.18-1.72,0-2.93.67-3.65,2-.72,1.34-1.07,2.84-1.07,4.51,0,2.2.37,4.38,1.11,6.55.74,2.17,1.54,4.24,2.4,6.19Z"/><path class="cls-1" d="m330.03,991.15c-4.1,0-7.29-.86-9.56-2.58-2.27-1.72-3.84-4.03-4.72-6.94-.88-2.91-1.33-6.16-1.33-9.74v-20.47c0-3.91.44-7.33,1.33-10.24.88-2.91,2.46-5.16,4.72-6.77,2.27-1.6,5.45-2.4,9.56-2.4,3.63,0,6.5.67,8.63,2,2.12,1.34,3.65,3.25,4.58,5.73.93,2.48,1.39,5.47,1.39,8.95v4.58h-7.66v-4.08c0-2.15-.11-4.04-.32-5.69-.21-1.65-.8-2.92-1.75-3.83-.96-.91-2.55-1.36-4.8-1.36s-3.96.49-5.01,1.47c-1.05.98-1.73,2.36-2.04,4.15-.31,1.79-.46,3.88-.46,6.26v22.98c0,2.91.24,5.21.72,6.91.48,1.69,1.26,2.9,2.36,3.61,1.1.72,2.58,1.07,4.44,1.07,2.19,0,3.77-.49,4.73-1.47.95-.98,1.55-2.33,1.79-4.05.24-1.72.36-3.72.36-6.01v-4.3h7.66v4.3c0,3.53-.43,6.65-1.29,9.34-.86,2.7-2.34,4.8-4.44,6.3-2.1,1.5-5.06,2.25-8.88,2.25Z"/><path class="cls-1" d="m368.48,991.15c-3.91,0-7.04-.76-9.38-2.29-2.34-1.53-4.01-3.71-5.01-6.55-1-2.84-1.5-6.17-1.5-9.99v-21.98c0-3.82.51-7.1,1.54-9.84,1.02-2.74,2.7-4.84,5.01-6.3,2.32-1.46,5.43-2.18,9.34-2.18s7.02.74,9.31,2.22c2.29,1.48,3.95,3.58,4.98,6.3,1.02,2.72,1.54,5.99,1.54,9.81v22.05c0,3.77-.51,7.06-1.54,9.88-1.03,2.82-2.69,5-4.98,6.55-2.29,1.55-5.39,2.33-9.31,2.33Zm0-6.37c2.15,0,3.77-.44,4.87-1.32,1.1-.88,1.84-2.12,2.22-3.72.38-1.6.57-3.47.57-5.62v-25.41c0-2.15-.19-4-.57-5.55-.38-1.55-1.12-2.74-2.22-3.58-1.1-.83-2.72-1.25-4.87-1.25s-3.78.42-4.9,1.25c-1.12.84-1.87,2.03-2.25,3.58-.38,1.55-.57,3.4-.57,5.55v25.41c0,2.15.19,4.02.57,5.62.38,1.6,1.13,2.84,2.25,3.72,1.12.88,2.76,1.32,4.9,1.32Z"/><path class="cls-1" d="m408.24,991.15c-3.91,0-7.04-.76-9.38-2.29-2.34-1.53-4.01-3.71-5.01-6.55-1-2.84-1.5-6.17-1.5-9.99v-21.98c0-3.82.51-7.1,1.54-9.84,1.02-2.74,2.7-4.84,5.01-6.3,2.32-1.46,5.43-2.18,9.34-2.18s7.02.74,9.31,2.22c2.29,1.48,3.95,3.58,4.98,6.3,1.02,2.72,1.54,5.99,1.54,9.81v22.05c0,3.77-.51,7.06-1.54,9.88-1.03,2.82-2.69,5-4.98,6.55-2.29,1.55-5.39,2.33-9.31,2.33Zm0-6.37c2.15,0,3.77-.44,4.87-1.32,1.1-.88,1.84-2.12,2.22-3.72.38-1.6.57-3.47.57-5.62v-25.41c0-2.15-.19-4-.57-5.55-.38-1.55-1.12-2.74-2.22-3.58-1.1-.83-2.72-1.25-4.87-1.25s-3.78.42-4.9,1.25c-1.12.84-1.87,2.03-2.25,3.58-.38,1.55-.57,3.4-.57,5.55v25.41c0,2.15.19,4.02.57,5.62.38,1.6,1.13,2.84,2.25,3.72,1.12.88,2.76,1.32,4.9,1.32Z"/><path class="cls-1" d="m432.8,990.51v-57.99h8.09v52.19h14.82v5.8h-22.91Z"/><path class="cls-1" d="m461.86,990.51v-57.99h7.95v57.99h-7.95Z"/><path class="cls-1" d="m479.31,990.51v-57.99h5.51l16.47,38.51v-38.51h6.73v57.99h-5.15l-16.68-39.59v39.59h-6.87Z"/><path class="cls-1" d="m531.67,991.22c-3.63,0-6.53-.78-8.7-2.33-2.17-1.55-3.75-3.81-4.72-6.77-.98-2.96-1.47-6.51-1.47-10.67v-19.4c0-4.25.44-7.86,1.33-10.85.88-2.98,2.46-5.26,4.72-6.84,2.27-1.57,5.43-2.36,9.49-2.36,3.63,0,6.55.61,8.77,1.83,2.22,1.22,3.83,3.08,4.83,5.58,1,2.51,1.5,5.67,1.5,9.49v2.15h-7.59v-1.79c0-2.53-.17-4.59-.5-6.19-.34-1.6-1.01-2.79-2.04-3.58-1.03-.79-2.64-1.18-4.83-1.18-2.39,0-4.11.55-5.19,1.65-1.07,1.1-1.74,2.59-2,4.47-.26,1.89-.39,4.02-.39,6.41v21.48c0,2.77.2,5.08.61,6.94.4,1.86,1.18,3.25,2.33,4.15,1.15.91,2.77,1.36,4.87,1.36s3.72-.5,4.87-1.5c1.15-1,1.93-2.48,2.36-4.44.43-1.96.64-4.39.64-7.3v-4.01h-7.37v-5.73h14.68v28.71h-5.08l-.79-6.66c-.76,2.15-1.96,3.91-3.58,5.3-1.62,1.38-3.87,2.08-6.73,2.08Z"/></svg>