<?xml version="1.0" encoding="UTF-8"?><svg id="Layer_1" xmlns="http://www.w3.org/2000/svg" xmlns:xlink="http://www.w3.org/1999/xlink" viewBox="0 0 780.24 753.28"><defs><style>.cls-1{fill:url(#linear-gradient);}</style><linearGradient id="linear-gradient" x1="390.12" y1="753.28" x2="390.12" y2="0" gradientUnits="userSpaceOnUse"><stop offset=".2" stop-color="#6ff"/><stop offset=".8" stop-color="#ff6427"/></linearGradient></defs><path class="cls-1" d="m365.55,214.24l-15.63-65.75,9.98-17.58,136.9-28.2-129.74-51.99L288.1,0l-91.67,66.76-2.41,26.96H0v659.56h531.93V214.24h-166.38Zm-151.49-17.22l6.64-74.12,2.61-29.18,1-11.17,64.82-47.21,63.33,40.68,43.43,17.69-52.73,10.86-2.11.43-22.18,39.07,23.62,99.35.69,2.92,34.34,38.39,37.75,67.61,12.29,75.42-68.4-100.15,3.73,196.03-16.42,71.66,30.46,22.67,9.86,18.49-28.84-7.26-29.62-21.63-87.51,1.73,30.63,37.11,2,14.21-21.29-7.45-34.61-41.71-34.98-10.56-24.51,20.6-28.42.51,40.07-34.45,16.4-31.55-9.89-72.07,12.52-201.23-63.2,147.36-24.14,33.83,7.47-86.07,54.15-126.92,51.04-53.89Zm288.69,527.08H29.18V122.9h162.23l-5.5,61.42-47.66,50.33-58.03,136.02-17.11,197.16,86.19-120.8-2.36,38,9.03,65.76-9.52,18.32-97.18,83.55,119.67-2.17,20.34-17.08,11.45,3.45,34.16,41.18,74.13,25.95-9.36-66.66,19.43-.38,26.25,19.17,98.17,24.72-43.9-82.37-20.44-15.21,12.97-56.6-1.94-101.88,87.25,127.75-34.19-209.95-41.83-74.9-21.7-24.27h123.03v480.68ZM757.94,71.59c-.5.06-51.46,5.46-69.63,5.32-21.02-.21-27.44-3.64-28.99-4.76.94-4.05,9.44-13.36,17.99-19.54l30.75-22.12-37.86,1.27c-78.91,2.65-130.2,60.07-132.35,62.51l-6.44,7.34,6.19,7.55c37.63,45.87,126.87,59.79,130.65,60.35l43.02,6.47-34.22-26.92c-4.21-3.31-8.55-8.33-9.78-11.12,1.79-.99,6.7-2.92,18.45-3.59,58.86-3.38,82.48-43.92,83.46-45.64l11.05-19.52-22.3,2.4Zm-73.53,39.77c-8.43.48-34.09,1.96-39.55,19.47-1.06,3.39-1.14,6.75-.57,9.97-24.56-6.41-59.97-18.51-81.73-38.69,12.52-11.51,40.15-33.45,77.43-42.91-3.35,6.3-4.95,13.18-2.78,20.05,5.74,18.13,31.78,20.48,50.87,20.68,9.2.12,25.59-1.08,40.38-2.36-10.26,6.67-24.68,12.68-44.05,13.79Z"/></svg>